# xmcd
#
# Track frame offsets:
#	150
#	13887
#	25912
#	39172
#	53087
#	65937
#	80842
#	93870
#	108962
#	122825
#	137142
#	148487
#	161880
#	191057
#	206585
#	220250
#
# Disc length: 3116 seconds
#
# Revision: 0
# Processed by: cddbd v1.5.1PL0 Copyright (c) Steve Scherf et al.
# Submitted via: dBpowerAMP V4.0
#
DISCID=f50c2a10
DTITLE=Various Artist - Blue Ladies
DYEAR=1900
DGENRE=Blues
TTITLE0=Ice Man - Memphis Minnie
TTITLE1=Take Me For A Buggy Ride - Bessie Smith
TTITLE2=One Hour Mama - Ida Cox
TTITLE3=Sam, The Hot Dog Man - Lil Johnson
TTITLE4=He's Just My Size - Little Mae Kirkman
TTITLE5=I've Got What It Takes - Virginia Liston
TTITLE6=If It Don't Fit Don't Force It - Barrel House Annie
TTITLE7=I'm In THe Racket - Billie Pierce
TTITLE8=Send Me a Man - Alberta Hunter
TTITLE9=Furniture Man Blues Part 2 - Victoria Spivey and Lonnie Johnson
TTITLE10=I'm Walking The Street - Georgia White
TTITLE11=Or Leave Me Alone - Lil Armstrong
TTITLE12=Empty Bed Blues - Bessie Smith
TTITLE13=Can't Be Bothered With No Sheik - Rosa Henderson
TTITLE14=My Butcher Man - Memphis Minnie
TTITLE15=For Sale - Clara Smith
EXTD=
EXTT0=
EXTT1=
EXTT2=
EXTT3=
EXTT4=
EXTT5=
EXTT6=
EXTT7=
EXTT8=
EXTT9=
EXTT10=
EXTT11=
EXTT12=
EXTT13=
EXTT14=
EXTT15=
PLAYORDER=
